<?xml version="1.0" encoding="UTF-8" standalone="no"?>
<!-- Created with Inkscape (http://www.inkscape.org/) -->

<svg
   width="40"
   height="40"
   viewBox="0 0 10.583333 10.583333"
   version="1.1"
   id="svg30428"
   inkscape:version="1.2.1 (9c6d41e, 2022-07-14)"
   sodipodi:docname="pluginIcon.svg"
   xmlns:inkscape="http://www.inkscape.org/namespaces/inkscape"
   xmlns:sodipodi="http://sodipodi.sourceforge.net/DTD/sodipodi-0.dtd"
   xmlns="http://www.w3.org/2000/svg"
   xmlns:svg="http://www.w3.org/2000/svg">
  <sodipodi:namedview
     id="namedview30430"
     pagecolor="#ffffff"
     bordercolor="#000000"
     borderopacity="0.25"
     inkscape:showpageshadow="2"
     inkscape:pageopacity="0.0"
     inkscape:pagecheckerboard="false"
     inkscape:deskcolor="#d1d1d1"
     inkscape:document-units="px"
     showgrid="true"
     inkscape:zoom="14.443701"
     inkscape:cx="5.5733637"
     inkscape:cy="12.566031"
     inkscape:window-width="1390"
     inkscape:window-height="1205"
     inkscape:window-x="0"
     inkscape:window-y="25"
     inkscape:window-maximized="0"
     inkscape:current-layer="layer1">
    <inkscape:grid
       type="xygrid"
       id="grid32364" />
  </sodipodi:namedview>
  <defs
     id="defs30425">
    <inkscape:path-effect
       effect="powerstroke"
       id="path-effect60773"
       is_visible="true"
       lpeversion="1"
       offset_points="2,0"
       not_jump="false"
       sort_points="true"
       interpolator_type="CentripetalCatmullRom"
       interpolator_beta="0.35616438"
       start_linecap_type="round"
       linejoin_type="extrp_arc"
       miter_limit="4"
       scale_width="2.6"
       end_linecap_type="zerowidth" />
    <inkscape:path-effect
       effect="skeletal"
       id="path-effect60661"
       is_visible="true"
       lpeversion="1"
       pattern="M 0,0 H 1"
       copytype="repeated"
       prop_scale="1"
       scale_y_rel="false"
       spacing="0"
       normal_offset="0"
       tang_offset="0"
       prop_units="false"
       vertical_pattern="false"
       hide_knot="false"
       fuse_tolerance="0" />
    <inkscape:path-effect
       effect="gears"
       id="path-effect60659"
       is_visible="true"
       lpeversion="1"
       teeth="3"
       phi="5"
       min_radius="5" />
    <inkscape:path-effect
       effect="fill_between_many"
       method="bsplinespiro"
       linkedpaths="#path59751,0,1"
       id="path-effect60775" />
  </defs>
  <g
     inkscape:label="Layer 1"
     inkscape:groupmode="layer"
     id="layer1">
    <path
       style="fill:#db5860;fill-opacity:1;stroke:none;stroke-width:0;stroke-dasharray:none;paint-order:stroke fill markers"
       d="M 6.2265297,6.8037185 C 6.1695027,6.804538 6.1076171,6.8111785 6.0392803,6.8258655 5.6083402,6.9184245 5.5484681,7.1979899 5.2695824,7.2872801 l 0.2126549,2.131737 h 9.41e-4 L 6.3394437,8.2184163 7.4158917,9.2335299 7.4271814,9.232607 7.1891225,6.8424774 C 6.7796678,7.0661483 6.6203365,6.7980588 6.2265297,6.8037185 Z"
       id="path34217-7" />
    <path
       style="fill:#db5860;fill-opacity:1;stroke:none;stroke-width:0;stroke-dasharray:none;paint-order:stroke fill markers"
       d="m 3.7104266,6.5683969 c -0.1658268,-0.00234 -0.301083,0.040298 -0.4431879,0.031377 l -0.7951035,2.8958403 9.41e-4,9.229e-4 1.2326456,-0.8268558 0.6426695,1.3224158 0.010339,0.00278 L 5.094554,7.3149668 C 5.061161,7.3156918 5.025257,7.314871 4.9863445,7.3112668 4.4288642,7.2597124 4.5610035,6.8567989 4.047287,6.6413005 3.918858,6.5874241 3.8092546,6.5697962 3.7104266,6.5683969 Z"
       id="path34215-9" />
    <path
       style="fill:#eda200;fill-opacity:1;stroke:none;stroke-width:0;stroke-dasharray:none;paint-order:stroke fill markers"
       d="m 5.5556314,0.70012186 c -0.012345,1.0817e-4 -0.024179,2.0224e-4 -0.035756,9.2277e-4 -0.045916,0.002921 -0.086403,0.0109279 -0.122323,0.0221479 -0.018378,0.005719 -0.035347,0.011893 -0.051753,0.0193793 -0.015896,0.007263 -0.030705,0.0162664 -0.045167,0.0249165 -0.00737,0.004431 -0.015495,0.008174 -0.022582,0.0129203 -0.027975,0.0187063 -0.053604,0.0405188 -0.079039,0.0627522 -0.025747,0.0225899 -0.050645,0.0460805 -0.077158,0.0701352 -0.013201,0.0119163 -0.026444,0.0231952 -0.040461,0.0350671 -3.352e-4,2.8586e-4 -6.05e-4,6.3713e-4 -9.41e-4,9.2288e-4 -0.033365,0.0283815 -0.069875,0.0556835 -0.1119731,0.0812087 -0.00191,0.00116 -0.00371,0.00254 -0.00564,0.00369 -0.053739,0.031903 -0.1164999,0.059757 -0.1947769,0.080286 -0.013019,0.00341 -0.026581,0.00717 -0.040461,0.01015 -0.014803,0.00318 -0.029152,0.00505 -0.043284,0.00739 -0.042398,0.00701 -0.081504,0.01055 -0.1185592,0.011072 -0.049408,7.11e-4 -0.095234,-0.00381 -0.1373796,-0.011072 -0.042146,-0.00726 -0.081121,-0.017409 -0.1185593,-0.028608 -0.084103,-0.025156 -0.1595849,-0.054563 -0.2408835,-0.066444 -0.00905,-0.0013 -0.01808,-0.00286 -0.027287,-0.00369 -0.03686,-0.00329 -0.075576,-0.0023 -0.1166783,0.00461 -0.010271,0.00172 -0.02041,0.00394 -0.031051,0.00646 -0.021281,0.00504 -0.043828,0.011696 -0.066807,0.020302 -0.034471,0.012909 -0.070897,0.030265 -0.11009,0.052602 -0.01829,0.010428 -0.034998,0.020832 -0.050811,0.031377 -0.024024,0.01602 -0.045072,0.032586 -0.063984,0.04891 -0.00856,0.0074 -0.016843,0.014689 -0.024465,0.022148 -0.00388,0.0038 -0.00859,0.00725 -0.012236,0.011072 -1.488e-4,1.555e-4 1.486e-4,7.673e-4 0,9.229e-4 -0.014657,0.015408 -0.027283,0.030424 -0.038579,0.046142 -2.456e-4,3.392e-4 -6.969e-4,5.833e-4 -9.41e-4,9.228e-4 -0.00542,0.0076 -0.010305,0.015397 -0.015058,0.023071 -2.228e-4,3.571e-4 -7.196e-4,5.653e-4 -9.41e-4,9.226e-4 -0.00965,0.015715 -0.018154,0.031928 -0.025407,0.047987 -0.01484,0.03284 -0.025447,0.066177 -0.033874,0.1005879 -0.0042,0.017197 -0.00776,0.034967 -0.01129,0.052602 -0.00707,0.035213 -0.013638,0.070888 -0.021643,0.1079699 -0.00404,0.018863 -0.00794,0.037832 -0.013165,0.057215 -0.00515,0.019047 -0.010961,0.037636 -0.017881,0.057215 -1.002e-4,2.85e-4 1.006e-4,6.376e-4 0,9.228e-4 -0.00336,0.00952 -0.00739,0.018953 -0.01129,0.028608 -0.00811,0.02014 -0.01737,0.040186 -0.028229,0.060908 -0.00536,0.010217 -0.010803,0.020093 -0.016933,0.030453 -1.406e-4,2.38e-4 1.411e-4,6.847e-4 0,9.229e-4 -0.00602,0.010139 -0.01291,0.020167 -0.01976,0.030453 -0.014112,0.021249 -0.029891,0.042721 -0.047989,0.064599 -0.00896,0.010817 -0.01819,0.021317 -0.028229,0.0323 -1.645e-4,1.801e-4 1.645e-4,7.429e-4 0,9.229e-4 -0.020088,0.021964 -0.040265,0.041212 -0.060222,0.059061 -0.019957,0.01784 -0.039505,0.033666 -0.059279,0.047987 -0.00989,0.00716 -0.020277,0.013911 -0.03011,0.020302 -0.019667,0.012786 -0.038927,0.024006 -0.058338,0.034144 -0.029118,0.015215 -0.058162,0.027835 -0.086567,0.038759 -0.075751,0.029131 -0.1478894,0.046441 -0.2164187,0.071058 -2.746e-4,9.84e-5 -6.666e-4,-9.86e-5 -9.41e-4,0 -0.016843,0.00607 -0.033575,0.013071 -0.049872,0.020302 -0.033116,0.014697 -0.065452,0.032367 -0.095977,0.05537 -0.00763,0.00575 -0.015132,0.012001 -0.022582,0.018456 -0.014913,0.012911 -0.029122,0.027209 -0.043284,0.043373 -0.00709,0.00808 -0.013821,0.015911 -0.020701,0.024917 -1.521e-4,1.985e-4 1.521e-4,7.24e-4 0,9.229e-4 -0.00674,0.00884 -0.014166,0.017893 -0.020701,0.027685 -1.435e-4,2.141e-4 1.434e-4,7.082e-4 0,9.229e-4 -0.00653,0.00982 -0.01342,0.019611 -0.01976,0.030453 -1.378e-4,2.354e-4 1.38e-4,6.87e-4 0,9.229e-4 -0.00634,0.010872 -0.012688,0.022172 -0.018819,0.034144 -1.291e-4,2.514e-4 1.29e-4,6.709e-4 0,9.229e-4 -0.00614,0.012001 -0.012895,0.024653 -0.018819,0.037836 -1.175e-4,2.605e-4 1.172e-4,6.62e-4 0,9.229e-4 -0.01195,0.026598 -0.022244,0.051641 -0.030111,0.075673 -0.00407,0.012412 -0.00728,0.024196 -0.01035,0.035991 -0.003,0.011554 -0.00542,0.02221 -0.00753,0.033221 -5.5e-5,2.845e-4 5.44e-5,6.386e-4 0,9.229e-4 -0.00203,0.010695 -0.00346,0.021151 -0.00471,0.031377 -0.00134,0.010817 -0.00231,0.021031 -0.00282,0.031377 -0.00101,0.020128 -7.848e-4,0.039526 9.408e-4,0.058138 8.63e-4,0.00932 0.00231,0.017751 0.00376,0.026762 0.00148,0.00931 0.00265,0.01775 0.0047,0.026761 0.00397,0.017465 0.00931,0.034993 0.015055,0.051679 0.00575,0.01668 0.012715,0.032634 0.01976,0.048911 0.021136,0.048829 0.046424,0.096799 0.070571,0.1485754 0.016097,0.034517 0.031583,0.071225 0.044225,0.1107407 0.00632,0.019758 0.0122,0.040269 0.016933,0.061829 0.00473,0.02156 0.00862,0.043636 0.01129,0.067367 3.5e-5,3.066e-4 -3.45e-5,6.158e-4 0,9.23e-4 0.0026,0.023463 0.00365,0.047882 0.00377,0.073826 1.9e-6,3.123e-4 -1.5e-6,6.103e-4 0,9.229e-4 4.89e-5,0.012858 -2.961e-4,0.026156 -9.409e-4,0.039681 -1.45e-5,3.141e-4 1.5e-5,6.084e-4 0,9.229e-4 -6.615e-4,0.013554 -0.0014,0.02817 -0.00282,0.04245 -0.0029,0.029178 -0.00694,0.056354 -0.012236,0.082132 -0.00264,0.012894 -0.0053,0.02479 -0.00847,0.036914 -7.35e-5,2.823e-4 7.39e-5,6.407e-4 0,9.226e-4 -0.015842,0.060237 -0.037921,0.111433 -0.063044,0.1568813 -1.945e-4,3.528e-4 -7.459e-4,5.704e-4 -9.41e-4,9.227e-4 -0.05038,0.090766 -0.1132895,0.1592384 -0.1637254,0.2325531 -0.015157,0.022034 -0.029132,0.044579 -0.041402,0.068291 -0.00413,0.00798 -0.00853,0.015714 -0.012233,0.023994 -0.00735,0.016447 -0.013458,0.033694 -0.018819,0.051679 -0.00268,0.009 -0.00542,0.018225 -0.00753,0.027685 -0.00211,0.00945 -0.00322,0.018633 -0.0047,0.028608 -0.00155,0.010273 -0.00292,0.02049 -0.00376,0.031377 -0.00163,0.021127 -0.0023,0.043581 -9.41e-4,0.067367 0.00136,0.023785 0.00467,0.04878 0.00941,0.075673 0.00237,0.013447 0.00517,0.027221 0.00847,0.041527 6.84e-5,2.99e-4 -6.89e-5,6.233e-4 0,9.228e-4 0.00658,0.028614 0.01422,0.054314 0.022583,0.078441 0.00419,0.012072 0.00857,0.023092 0.013174,0.034144 0.032203,0.077754 0.073723,0.1308516 0.1223234,0.1725694 0.01384,0.011875 0.028482,0.022978 0.043284,0.033221 0.029437,0.02039 0.06089,0.038069 0.093154,0.05537 2.409e-4,1.291e-4 7e-4,-1.289e-4 9.41e-4,0 0.048483,0.025914 0.099347,0.051356 0.1505517,0.083056 0.00561,0.00347 0.011326,0.00743 0.016933,0.011072 0.011617,0.00754 0.023228,0.015608 0.034815,0.023994 2.148e-4,1.551e-4 7.263e-4,-1.556e-4 9.41e-4,0 0.00836,0.00607 0.016133,0.012786 0.024465,0.019379 1.97e-4,1.558e-4 7.438e-4,-1.562e-4 9.409e-4,0 0.00833,0.00663 0.016169,0.014001 0.024465,0.021226 1.821e-4,1.582e-4 7.589e-4,-1.586e-4 9.41e-4,0 0.0083,0.00725 0.016242,0.015161 0.024465,0.023071 1.676e-4,1.608e-4 7.734e-4,-1.613e-4 9.41e-4,0 0.00823,0.00795 0.016315,0.016233 0.024465,0.024916 3.021e-4,3.208e-4 6.388e-4,6.013e-4 9.407e-4,9.229e-4 0.008,0.00855 0.015641,0.017429 0.023524,0.026762 2.913e-4,3.431e-4 6.503e-4,5.786e-4 9.41e-4,9.227e-4 0.0079,0.0094 0.01575,0.019294 0.023524,0.02953 2.692e-4,3.53e-4 6.722e-4,5.687e-4 9.411e-4,9.229e-4 0.00778,0.010284 0.01495,0.021095 0.022582,0.0323 2.507e-4,3.665e-4 6.907e-4,5.554e-4 9.41e-4,9.229e-4 0.00788,0.011572 0.015824,0.023367 0.023524,0.035991 0.015186,0.024869 0.028239,0.04939 0.03952,0.072903 1.717e-4,3.58e-4 7.7e-4,5.651e-4 9.41e-4,9.228e-4 0.028493,0.05963 0.04465,0.114617 0.054574,0.1670315 0.00596,0.03145 0.00934,0.061892 0.01129,0.09136 0.00392,0.058938 0.00191,0.1141546 0.00188,0.1679549 4.19e-5,0.035868 0.00139,0.071169 0.00564,0.1061252 0.00105,0.00873 0.00225,0.018037 0.00377,0.026761 0.00453,0.026052 0.010837,0.051285 0.020701,0.077517 1.029e-4,2.762e-4 -1.038e-4,6.465e-4 0,9.229e-4 0.00323,0.00854 0.00736,0.01725 0.01129,0.025838 1.183e-4,2.602e-4 -1.192e-4,6.626e-4 0,9.227e-4 0.00803,0.017447 0.017789,0.034849 0.02917,0.052602 1.447e-4,2.27e-4 -1.453e-4,6.957e-4 0,9.229e-4 0.00566,0.00878 0.012236,0.016947 0.018819,0.025838 1.568e-4,2.126e-4 -1.573e-4,7.098e-4 0,9.226e-4 0.00662,0.00891 0.014021,0.017733 0.021643,0.026762 1.628e-4,1.937e-4 -1.633e-4,7.29e-4 0,9.227e-4 0.015459,0.018299 0.033623,0.036485 0.053635,0.05537 0.010101,0.00954 0.020626,0.019826 0.031993,0.02953 0.011362,0.0097 0.022842,0.018251 0.033875,0.026761 0.00839,0.00644 0.016242,0.012679 0.024465,0.018456 0.00444,0.00314 0.00878,0.00626 0.013165,0.00923 0.016279,0.010895 0.032341,0.021003 0.047989,0.02953 0.003,0.00165 0.00643,0.00305 0.00941,0.00461 0.00941,0.00491 0.018999,0.0097 0.028229,0.01384 0.2699293,0.1213548 0.4609216,-0.081353 0.8374463,0.076594 0.4452208,0.1867657 0.329822,0.5348499 0.8129819,0.5795372 C 5.5156152,6.8834684 5.4723148,6.520658 5.9461186,6.418893 6.4199223,6.3171278 6.5386314,6.6645316 6.9567,6.426263 7.038275,6.379774 7.0941015,6.331546 7.1335994,6.282302 c 4.421e-4,-5.502e-4 5.026e-4,-0.0013 9.408e-4,-0.00184 0.016933,-0.021286 0.030748,-0.0427 0.042343,-0.064597 0.00198,-0.00375 0.00378,-0.00731 0.00564,-0.011072 0.00437,-0.00887 0.00853,-0.017787 0.012236,-0.026761 0.00302,-0.00731 0.00583,-0.014768 0.00847,-0.022147 0.00374,-0.010395 0.00722,-0.020839 0.010339,-0.031377 0.0033,-0.011161 0.00662,-0.02189 0.00941,-0.033222 5.961e-4,-0.00243 0.0013,-0.00494 0.00188,-0.00737 0.0035,-0.014822 0.00638,-0.030078 0.00941,-0.045218 0.00233,-0.011679 0.00527,-0.024114 0.00752,-0.035991 0.00444,-0.023315 0.00895,-0.046938 0.014112,-0.071058 9.145e-4,-0.00426 0.00186,-0.00863 0.00282,-0.012911 8.932e-4,-0.00399 0.00188,-0.00798 0.00282,-0.012001 0.0033,-0.014036 0.00632,-0.028124 0.010339,-0.04245 7.78e-5,-2.749e-4 -7.79e-5,-6.476e-4 0,-9.227e-4 0.00431,-0.015286 0.00959,-0.030519 0.015058,-0.046142 0.00555,-0.015893 0.011745,-0.031741 0.018819,-0.047987 0.00186,-0.00425 0.00368,-0.00864 0.00564,-0.012911 0.00536,-0.011608 0.011581,-0.023276 0.017881,-0.035067 0.00863,-0.016161 0.017553,-0.033301 0.028229,-0.049832 3.67e-4,-5.679e-4 5.71e-4,-0.00128 9.408e-4,-0.00184 0.010803,-0.016626 0.023525,-0.032825 0.036698,-0.049832 5.286e-4,-6.811e-4 0.00135,-0.00117 0.00188,-0.00184 0.00564,-0.00723 0.010837,-0.01484 0.016934,-0.022147 0.0079,-0.00941 0.016679,-0.019068 0.025406,-0.028608 0.020087,-0.021964 0.040265,-0.042136 0.06022,-0.059985 0.019957,-0.01784 0.039505,-0.033665 0.059279,-0.047987 0.00989,-0.00716 0.020277,-0.013911 0.03011,-0.020302 0.019667,-0.012786 0.038926,-0.024006 0.058339,-0.034144 0.029118,-0.015215 0.058162,-0.027835 0.086567,-0.038759 0.018558,-0.00714 0.037321,-0.013376 0.055516,-0.019379 0.03751,-0.012393 0.07348,-0.02293 0.1091512,-0.034144 0.035315,-0.011108 0.069447,-0.023142 0.1025632,-0.037836 0.024844,-0.011017 0.049043,-0.023397 0.072449,-0.038759 0.00781,-0.00513 0.015898,-0.010861 0.023519,-0.016607 0.00759,-0.00575 0.015128,-0.012001 0.022579,-0.018456 0.02207,-0.019112 0.043573,-0.041728 0.063979,-0.068291 2.525e-4,-3.304e-4 6.896e-4,-5.911e-4 9.41e-4,-9.227e-4 0.00679,-0.00881 0.013215,-0.017922 0.01976,-0.027685 1.427e-4,-2.13e-4 -1.415e-4,-7.093e-4 0,-9.227e-4 0.00657,-0.00978 0.013419,-0.019635 0.01976,-0.030453 1.336e-4,-2.282e-4 -1.325e-4,-6.94e-4 0,-9.228e-4 0.0034,-0.00582 0.00702,-0.012322 0.010305,-0.018456 0.00306,-0.00557 0.00645,-0.010772 0.0094,-0.016607 0.00623,-0.012233 0.011833,-0.024392 0.01788,-0.037836 0.011947,-0.026593 0.022251,-0.052561 0.03011,-0.076594 9.4e-5,-2.884e-4 -9.28e-5,-6.35e-4 0,-9.228e-4 0.00781,-0.023958 0.013679,-0.046524 0.01788,-0.068291 6.01e-5,-3.081e-4 -5.77e-5,-6.148e-4 0,-9.226e-4 0.00204,-0.010695 0.0034,-0.021138 0.00464,-0.031377 3.73e-5,-3.069e-4 -3.63e-5,-6.163e-4 0,-9.229e-4 0.0051,-0.041734 0.00385,-0.079579 -0.00193,-0.1153546 -4.75e-5,-3.016e-4 4.99e-5,-6.214e-4 0,-9.229e-4 -0.00136,-0.00872 -0.00283,-0.017376 -0.00476,-0.025838 -6.57e-5,-2.939e-4 6.79e-5,-6.291e-4 0,-9.227e-4 -4.382e-4,-0.00193 -0.00136,-0.00362 -0.00192,-0.00553 -0.00374,-0.015465 -0.00804,-0.030349 -0.01317,-0.04522 -0.00566,-0.016447 -0.011913,-0.032867 -0.01882,-0.048909 -1.098e-4,-2.552e-4 1.11e-4,-6.676e-4 0,-9.229e-4 -0.00691,-0.016054 -0.014857,-0.03198 -0.022579,-0.047987 -1.189e-4,-2.462e-4 1.189e-4,-6.765e-4 0,-9.229e-4 -0.015547,-0.032165 -0.032057,-0.064594 -0.04799,-0.098743 -1.665e-4,-3.598e-4 -7.735e-4,-5.628e-4 -9.41e-4,-9.229e-4 -0.00793,-0.016929 -0.015298,-0.034661 -0.022579,-0.052602 -1.438e-4,-3.56e-4 -7.972e-4,-5.663e-4 -9.41e-4,-9.228e-4 -0.00725,-0.017992 -0.013532,-0.036928 -0.01976,-0.056293 -0.00328,-0.010251 -0.00645,-0.019737 -0.0094,-0.030453 -0.0051,-0.018635 -0.00963,-0.038825 -0.013169,-0.059061 -3.748e-4,-0.00214 -5.843e-4,-0.00429 -9.41e-4,-0.00646 -2.061e-4,-0.00124 -7.406e-4,-0.00244 -9.41e-4,-0.0037 -0.00895,-0.055588 -0.011777,-0.11691 -0.00476,-0.1882573 0.0043,-0.043767 0.012128,-0.083616 0.02164,-0.1199672 0.015865,-0.060588 0.037799,-0.112192 0.063039,-0.1578045 0.020066,-0.036252 0.042464,-0.06889 0.06493,-0.099666 1.506e-4,-2.061e-4 -1.495e-4,-7.169e-4 0,-9.23e-4 0.034084,-0.046654 0.068304,-0.088569 0.098799,-0.1328873 0.010078,-0.014715 0.020258,-0.028933 0.02917,-0.044296 0.00895,-0.01534 0.017121,-0.031563 0.02447,-0.047987 0.00747,-0.016679 0.013396,-0.033408 0.01882,-0.051679 0.0026,-0.00872 0.00544,-0.017608 0.00747,-0.026761 6.45e-5,-2.854e-4 -6.23e-5,-6.372e-4 0,-9.23e-4 0.00419,-0.018645 0.00691,-0.038274 0.00849,-0.059061 2.27e-5,-2.924e-4 -2.15e-5,-6.301e-4 0,-9.229e-4 8.074e-4,-0.010573 0.00181,-0.0211 0.00193,-0.0323 9.62e-5,-0.011464 -2.254e-4,-0.022866 -9.399e-4,-0.035067 -6.67e-4,-0.01159 -0.00226,-0.023682 -0.00374,-0.035991 -3.51e-5,-2.948e-4 3.51e-5,-6.276e-4 0,-9.229e-4 -0.00147,-0.012339 -0.0034,-0.024722 -0.00566,-0.037836 -5.1e-5,-2.873e-4 5.09e-5,-6.352e-4 0,-9.228e-4 -0.00226,-0.013161 -0.00521,-0.026622 -0.00849,-0.040605 -6.91e-5,-2.999e-4 6.91e-5,-6.233e-4 0,-9.228e-4 -0.00328,-0.014001 -0.00668,-0.027709 -0.010305,-0.040605 -8.38e-5,-2.914e-4 8.27e-5,-6.319e-4 0,-9.226e-4 -0.00362,-0.012858 -0.00815,-0.025095 -0.012241,-0.036914 -9.73e-5,-2.795e-4 9.63e-5,-6.44e-4 0,-9.229e-4 -0.00419,-0.012072 -0.00861,-0.023095 -0.013169,-0.034144 -0.00929,-0.02238 -0.019216,-0.042248 -0.03011,-0.060906 -0.00521,-0.009 -0.010418,-0.017608 -0.016,-0.025838 -1.439e-4,-2.115e-4 1.438e-4,-7.12e-4 0,-9.229e-4 -0.00555,-0.00822 -0.012003,-0.015537 -0.01788,-0.023071 -1.495e-4,-1.894e-4 1.483e-4,-7.337e-4 0,-9.228e-4 -0.00589,-0.00752 -0.012615,-0.01434 -0.01882,-0.021226 -1.517e-4,-1.675e-4 1.506e-4,-7.558e-4 0,-9.229e-4 -0.00623,-0.00687 -0.013271,-0.013072 -0.01976,-0.019379 C 8.2380835,2.7645593 8.1481752,2.7267143 8.0544785,2.675001 8.0204055,2.656197 7.9862195,2.635211 7.9519199,2.610404 c -0.00838,-0.00605 -0.017065,-0.012786 -0.02541,-0.019379 -1.834e-4,-1.45e-4 -7.587e-4,1.453e-4 -9.41e-4,0 -0.00836,-0.00661 -0.016169,-0.014019 -0.024465,-0.021226 -1.687e-4,-1.471e-4 -7.718e-4,1.476e-4 -9.408e-4,0 -0.00832,-0.00723 -0.016223,-0.015179 -0.024465,-0.023071 -0.00857,-0.00822 -0.016933,-0.015893 -0.025406,-0.024916 -1.53e-4,-1.629e-4 1.527e-4,-7.598e-4 0,-9.229e-4 -0.032796,-0.035269 -0.065971,-0.076169 -0.096652,-0.1264318 -0.015405,-0.025247 -0.028124,-0.049966 -0.03952,-0.073826 -1.226e-4,-2.572e-4 1.225e-4,-6.66e-4 0,-9.23e-4 -0.045305,-0.095123 -0.061614,-0.1799204 -0.066807,-0.2583923 -0.00392,-0.059013 -0.00191,-0.1140671 -0.00188,-0.1679549 8.5e-6,-0.017963 -1.937e-4,-0.035859 -9.408e-4,-0.053524 -0.00149,-0.035331 -0.00508,-0.070238 -0.013165,-0.1052023 -0.00197,-0.00846 -0.00501,-0.017358 -0.00752,-0.025838 -8.28e-5,-2.752e-4 8.35e-5,-6.475e-4 0,-9.227e-4 -0.00779,-0.026037 -0.018544,-0.051931 -0.032934,-0.07844 -1.23e-4,-2.249e-4 1.237e-4,-6.979e-4 0,-9.23e-4 -0.014603,-0.026766 -0.033116,-0.053499 -0.056458,-0.081209 -0.00779,-0.00923 -0.016497,-0.018313 -0.025406,-0.027685 -0.0089,-0.00937 -0.018136,-0.019077 -0.028229,-0.028608 -0.010089,-0.00954 -0.020626,-0.018903 -0.031993,-0.028608 -0.011362,-0.0097 -0.022842,-0.019176 -0.033874,-0.027685 -0.022063,-0.017018 -0.043099,-0.031642 -0.063985,-0.044296 -0.010452,-0.00632 -0.020864,-0.012197 -0.031051,-0.017537 -0.030565,-0.016019 -0.059692,-0.027612 -0.088449,-0.035991 -0.00958,-0.00279 -0.01973,-0.00531 -0.02917,-0.00737 -0.028316,-0.00625 -0.055334,-0.00905 -0.082803,-0.010139 -0.027469,-0.00111 -0.05546,-3.204e-4 -0.082803,0.00184 -0.017918,0.00143 -0.036443,0.00338 -0.054575,0.00553 -0.038333,0.00459 -0.07789,0.00966 -0.1185593,0.01384 -0.037007,0.00381 -0.07528,0.00693 -0.1157369,0.00646 -3.242e-4,-4.1e-6 -6.168e-4,4.7e-6 -9.411e-4,0 -3.194e-4,-3.8e-6 -6.213e-4,4.6e-6 -9.408e-4,0 -0.031856,-4.785e-4 -0.065879,-0.00308 -0.1006823,-0.00831 -0.023425,-0.00352 -0.047428,-0.0084 -0.072453,-0.014768 -0.025024,-0.00637 -0.050319,-0.014233 -0.077158,-0.023994 -0.01342,-0.00488 -0.027489,-0.00986 -0.041403,-0.015688 -0.027826,-0.011674 -0.05343,-0.024087 -0.077158,-0.036913 -0.03559,-0.019236 -0.067063,-0.039709 -0.095032,-0.060903 C 6.2633508,1.172362 6.2462441,1.1577981 6.2302607,1.1431042 6.2222888,1.1357523 6.2150926,1.128416 6.207679,1.1209563 6.1482501,1.0613614 6.1055473,0.99898089 6.0618305,0.9410045 6.0399735,0.9120166 6.0178535,0.8838106 5.9931415,0.8579501 5.9809415,0.845182 5.9682835,0.8327126 5.9545625,0.8210373 c -1.796e-4,-1.5292e-4 -7.61e-4,1.527e-4 -9.41e-4,0 -0.00677,-0.005753 -0.013456,-0.0120885 -0.020701,-0.0175346 -1.961e-4,-1.4726e-4 -7.445e-4,1.4715e-4 -9.41e-4,0 -0.014713,-0.0110057 -0.029999,-0.021787 -0.047048,-0.0313767 -2.352e-4,-1.3215e-4 -7.05e-4,1.3194e-4 -9.408e-4,0 -0.00844,-0.00472 -0.017262,-0.009506 -0.026346,-0.013842 -2.508e-4,-1.1927e-4 -6.897e-4,1.1894e-4 -9.411e-4,0 -0.00913,-0.00432 -0.018376,-0.009007 -0.028229,-0.0129203 -2.651e-4,-1.0495e-4 -6.754e-4,1.0461e-4 -9.41e-4,0 -0.00989,-0.003898 -0.020366,-0.007618 -0.031051,-0.0110723 -2.791e-4,-9.007e-5 -6.612e-4,8.973e-5 -9.41e-4,0 -0.010712,-0.003454 -0.021344,-0.007174 -0.032934,-0.0101505 -2.834e-4,-7.263e-5 -6.571e-4,7.23e-5 -9.41e-4,0 -0.011635,-0.002976 -0.024123,-0.00583 -0.036698,-0.008307 -2.9e-4,-5.686e-5 -6.503e-4,5.652e-5 -9.41e-4,0 -0.02581,-0.005053 -0.053547,-0.008285 -0.083744,-0.0110723 -0.015094,-0.001399 -0.029179,-0.002854 -0.043284,-0.003687 -0.014112,-8.3336e-4 -0.028236,-0.001038 -0.041403,-9.2276e-4 z"
       id="rect34051-5" />
    <text
       xml:space="preserve"
       style="font-size:3.175px;fill:#eda200;fill-opacity:1;stroke:none;stroke-width:0;stroke-dasharray:none;paint-order:stroke fill markers"
       x="3.6363566"
       y="3.8403757"
       id="text37978"><tspan
         sodipodi:role="line"
         id="tspan37976"
         style="stroke-width:0"
         x="3.6363566"
         y="3.8403757" /></text>
    <circle
       style="fill:#db5860;fill-opacity:1;fill-rule:nonzero;stroke:#db5860;stroke-width:0;paint-order:stroke fill markers"
       id="path59751"
       inkscape:linked-fill="path60777"
       cx="5.336802"
       cy="3.771348"
       r="2.2489583" />
    <circle
       style="fill:#eda200;fill-opacity:1;stroke-width:0;paint-order:stroke fill markers"
       id="path59751-1"
       cx="5.336802"
       cy="3.771348"
       r="1.7197917" />
  </g>
</svg>
