<?xml version="1.0" encoding="UTF-8" standalone="no"?>
<!-- Created with Inkscape (http://www.inkscape.org/) -->

<svg
   width="16"
   height="16"
   viewBox="0 0 4.2333332 4.2333332"
   version="1.1"
   id="svg30428"
   inkscape:version="1.2.1 (9c6d41e, 2022-07-14)"
   sodipodi:docname="cbAction_dark.svg"
   xmlns:inkscape="http://www.inkscape.org/namespaces/inkscape"
   xmlns:sodipodi="http://sodipodi.sourceforge.net/DTD/sodipodi-0.dtd"
   xmlns="http://www.w3.org/2000/svg"
   xmlns:svg="http://www.w3.org/2000/svg">
  <sodipodi:namedview
     id="namedview30430"
     pagecolor="#ffffff"
     bordercolor="#000000"
     borderopacity="0.25"
     inkscape:showpageshadow="2"
     inkscape:pageopacity="0.0"
     inkscape:pagecheckerboard="false"
     inkscape:deskcolor="#d1d1d1"
     inkscape:document-units="px"
     showgrid="true"
     inkscape:zoom="23.175"
     inkscape:cx="8.0906149"
     inkscape:cy="20.517799"
     inkscape:window-width="1390"
     inkscape:window-height="1205"
     inkscape:window-x="0"
     inkscape:window-y="25"
     inkscape:window-maximized="0"
     inkscape:current-layer="layer1">
    <inkscape:grid
       type="xygrid"
       id="grid32364"
       originx="0"
       originy="0" />
  </sodipodi:namedview>
  <defs
     id="defs30425" />
  <g
     inkscape:label="Layer 1"
     inkscape:groupmode="layer"
     id="layer1">
    <path
       style="fill:#afb1b3;fill-opacity:1;stroke:none;stroke-width:0;stroke-dasharray:none;paint-order:stroke fill markers"
       d="m 2.4712495,2.6970014 c -0.022727,3.266e-4 -0.047389,0.00297 -0.074623,0.00883 C 2.2248873,2.7427184 2.201027,2.8541312 2.0898848,2.8897153 l 0.084748,0.8495446 h 3.75e-4 l 0.3412404,-0.47847 0.4289884,0.4045453 0.0045,-3.678e-4 -0.094873,-0.9525197 C 2.6916873,2.8015855 2.6281902,2.6947459 2.4712495,2.6970014 Z"
       id="path34217-7" />
    <path
       style="fill:#afb1b3;fill-opacity:1;stroke:none;stroke-width:0;stroke-dasharray:none;paint-order:stroke fill markers"
       d="m 1.4685265,2.6032205 c -0.066086,-9.325e-4 -0.1199883,0.01606 -0.1766202,0.012504 l -0.31686645,1.1540567 3.7501e-4,3.678e-4 0.49123664,-0.3295204 0.2561181,0.5270121 0.00412,0.00111 0.2932421,-1.0680037 c -0.013308,2.871e-4 -0.027616,-4e-5 -0.043124,-0.00148 C 1.7548398,2.8787251 1.8075003,2.7181551 1.6027728,2.6322742 1.551591,2.6108033 1.5079116,2.6037782 1.4685265,2.6032205 Z"
       id="path34215-9" />
    <path
       style="fill:#afb1b3;fill-opacity:1;stroke:none;stroke-width:0;stroke-dasharray:none;paint-order:stroke fill markers"
       d="m 2.2038816,0.26458254 c -0.00492,4.31e-5 -0.00964,8.059e-5 -0.01425,3.6774e-4 -0.018299,0.001164 -0.034434,0.004355 -0.048748,0.008826 -0.00732,0.002279 -0.014087,0.00474 -0.020625,0.007723 -0.00633,0.002894 -0.012237,0.006483 -0.018,0.00993 -0.00294,0.001766 -0.00617,0.003257 -0.009,0.005149 -0.011148,0.007455 -0.021362,0.0161476 -0.031499,0.0250081 -0.010261,0.009003 -0.020183,0.0183641 -0.030749,0.0279505 -0.00526,0.004749 -0.010538,0.009244 -0.016125,0.013975 -1.336e-4,1.1392e-4 -2.411e-4,2.5391e-4 -3.75e-4,3.6779e-4 -0.013297,0.0113107 -0.027847,0.0221911 -0.044624,0.0323635 -7.612e-4,4.6228e-4 -0.00148,0.001012 -0.00225,0.001471 -0.021416,0.0127141 -0.046428,0.0238145 -0.077623,0.0319957 -0.00519,0.001359 -0.010593,0.002857 -0.016125,0.004045 -0.0059,0.001267 -0.011618,0.002013 -0.01725,0.002945 -0.016897,0.002794 -0.032481,0.004204 -0.047249,0.004412 -0.01969,2.8335e-4 -0.037953,-0.001518 -0.054749,-0.004412 -0.016796,-0.002893 -0.032329,-0.006938 -0.047249,-0.0114009 -0.033517,-0.0100252 -0.063598,-0.0217446 -0.095997,-0.0264794 -0.00361,-5.1807e-4 -0.00721,-0.00114 -0.010874,-0.001471 -0.01469,-0.001311 -0.030119,-9.1658e-4 -0.046499,0.001837 -0.00409,6.8544e-4 -0.00813,0.00157 -0.012375,0.002574 -0.00848,0.002009 -0.017466,0.004661 -0.026624,0.008091 -0.013738,0.005145 -0.028254,0.0120613 -0.043873,0.0209631 -0.00729,0.004156 -0.013948,0.008302 -0.020249,0.0125044 -0.00957,0.006384 -0.017962,0.0129862 -0.025499,0.0194917 -0.00341,0.002949 -0.00671,0.005854 -0.00975,0.008826 -0.00155,0.001514 -0.00342,0.002889 -0.00488,0.004412 -5.93e-5,6.197e-5 5.92e-5,3.0579e-4 0,3.678e-4 -0.00584,0.00614 -0.010873,0.0121247 -0.015375,0.0183886 -9.79e-5,1.3518e-4 -2.778e-4,2.3246e-4 -3.75e-4,3.6776e-4 -0.00216,0.003029 -0.00411,0.006136 -0.006,0.009194 -8.89e-5,1.4231e-4 -2.869e-4,2.2528e-4 -3.751e-4,3.6767e-4 -0.00385,0.006263 -0.00723,0.012724 -0.010125,0.0191239 -0.00591,0.0130875 -0.010141,0.026373 -0.0135,0.0400865 -0.00167,0.006853 -0.00309,0.0139353 -0.0045,0.0209631 -0.00282,0.0140333 -0.00544,0.0282503 -0.00863,0.0430284 -0.00161,0.007517 -0.00316,0.015077 -0.00525,0.0228014 -0.00205,0.007591 -0.00437,0.0149989 -0.00713,0.0228014 -3.99e-5,1.1358e-4 4.01e-5,2.541e-4 0,3.6775e-4 -0.00134,0.003794 -0.00294,0.007553 -0.0045,0.0114011 -0.00323,0.008026 -0.00692,0.0160151 -0.01125,0.0242732 -0.00214,0.004072 -0.00431,0.008007 -0.00675,0.0121364 -5.6e-5,9.484e-5 5.62e-5,2.7286e-4 0,3.6779e-4 -0.0024,0.004041 -0.00514,0.008037 -0.00788,0.0121364 -0.00562,0.008468 -0.011912,0.0170254 -0.019125,0.0257441 -0.00357,0.004311 -0.00725,0.008495 -0.01125,0.0128724 -6.55e-5,7.177e-5 6.56e-5,2.9605e-4 0,3.6779e-4 -0.00801,0.008753 -0.016047,0.016424 -0.024,0.0235371 -0.00795,0.00711 -0.015744,0.0134168 -0.023624,0.0191239 -0.00394,0.002853 -0.00808,0.005544 -0.011999,0.008091 -0.00784,0.005095 -0.015513,0.009567 -0.023249,0.0136073 -0.011604,0.006063 -0.023179,0.0110927 -0.034499,0.0154464 -0.030188,0.0116095 -0.058937,0.0185078 -0.086248,0.0283181 -1.094e-4,3.921e-5 -2.656e-4,-3.93e-5 -3.75e-4,0 -0.00671,0.002419 -0.01338,0.005209 -0.019875,0.008091 -0.013197,0.005857 -0.026084,0.0128991 -0.038249,0.0220662 -0.00304,0.002291 -0.00603,0.004783 -0.009,0.007355 -0.00594,0.005145 -0.0116058,0.0108432 -0.0172496,0.0172852 -0.002825,0.00322 -0.005508,0.006341 -0.00825,0.00993 -6.061e-5,7.91e-5 6.062e-5,2.8856e-4 0,3.6783e-4 -0.002686,0.003523 -0.005645,0.007131 -0.00825,0.0110333 -5.719e-5,8.53e-5 5.715e-5,2.823e-4 0,3.678e-4 -0.002602,0.00391 -0.005348,0.00782 -0.007875,0.012136 -5.492e-5,9.38e-5 5.499e-5,2.738e-4 0,3.678e-4 -0.002527,0.00433 -0.005056,0.00884 -0.0075,0.013607 -5.144e-5,1.002e-4 5.141e-5,2.673e-4 0,3.678e-4 -0.002447,0.00478 -0.005139,0.00982 -0.0075,0.015079 -4.683e-5,1.038e-4 4.671e-5,2.638e-4 0,3.678e-4 -0.004762,0.0106 -0.008865,0.02058 -0.0119999,0.030157 -0.001622,0.00495 -0.002901,0.00964 -0.004125,0.014343 -0.001196,0.0046 -0.00216,0.00885 -0.003001,0.01324 -2.192e-5,1.134e-4 2.168e-5,2.545e-4 0,3.678e-4 -8.0899e-4,0.00426 -0.001379,0.00843 -0.001877,0.012505 -5.3401e-4,0.00431 -9.2057e-4,0.00838 -0.001124,0.012505 -4.025e-4,0.00802 -3.1276e-4,0.015752 3.7493e-4,0.023169 3.4392e-4,0.00371 9.2057e-4,0.00707 0.001498,0.010665 5.898e-4,0.00371 0.001056,0.00707 0.001873,0.010665 0.001582,0.00696 0.00371,0.013946 0.006,0.020595 0.002291,0.00665 0.005067,0.013006 0.007875,0.019492 0.008423,0.019459 0.018501,0.038577 0.0281241,0.059211 0.006415,0.013756 0.0125865,0.028385 0.0176246,0.044133 0.002519,0.00787 0.004862,0.016048 0.006748,0.02464 0.001885,0.00859 0.003435,0.01739 0.004499,0.026847 1.4e-5,1.221e-4 -1.37e-5,2.454e-4 0,3.678e-4 0.00104,0.00935 0.00145,0.019082 0.0015,0.029421 8e-7,1.245e-4 -6e-7,2.433e-4 0,3.678e-4 1.95e-5,0.00512 -1.18e-4,0.010424 -3.749e-4,0.015814 -5.8e-6,1.252e-4 5.9e-6,2.425e-4 0,3.678e-4 -2.637e-4,0.0054 -5.579e-4,0.011227 -0.00112,0.016917 -0.00116,0.011628 -0.00277,0.022458 -0.004876,0.032731 -0.001052,0.00514 -0.002112,0.00988 -0.003375,0.014711 -2.929e-5,1.125e-4 2.945e-5,2.553e-4 0,3.677e-4 -0.006313,0.024006 -0.0151124,0.044409 -0.0251244,0.062521 -7.751e-5,1.406e-4 -2.9726e-4,2.273e-4 -3.7501e-4,3.677e-4 -0.0200775,0.036172 -0.0451484,0.06346 -0.0652482,0.092677 -0.00604,0.00878 -0.0116097,0.017766 -0.0164996,0.027215 -0.001646,0.00318 -0.003399,0.00626 -0.004875,0.00956 -0.002929,0.00655 -0.005363,0.013428 -0.0075,0.020595 -0.001068,0.00359 -0.00216,0.00726 -0.003001,0.011033 -8.4086e-4,0.00377 -0.001283,0.00743 -0.001873,0.011401 -6.177e-4,0.00409 -0.001164,0.00817 -0.001498,0.012505 -6.4958e-4,0.00842 -9.1659e-4,0.017368 -3.7501e-4,0.026847 5.4198e-4,0.00948 0.001861,0.01944 0.00375,0.030157 9.4448e-4,0.00536 0.00206,0.010848 0.003375,0.016549 2.726e-5,1.191e-4 -2.746e-5,2.484e-4 0,3.678e-4 0.002622,0.011403 0.005667,0.021645 0.009,0.03126 0.00167,0.00481 0.003415,0.0092 0.00525,0.013607 0.0128336,0.030987 0.0293802,0.052147 0.0487486,0.068773 0.005516,0.00473 0.0113507,0.00916 0.0172496,0.01324 0.0117313,0.00813 0.024266,0.015171 0.037124,0.022066 9.6e-5,5.14e-5 2.7896e-4,-5.14e-5 3.75e-4,0 0.0193216,0.010327 0.039592,0.020466 0.0599982,0.033099 0.00224,0.00138 0.00451,0.00296 0.00675,0.00441 0.00463,0.003 0.00926,0.00622 0.013875,0.00956 8.56e-5,6.19e-5 2.894e-4,-6.2e-5 3.75e-4,0 0.00333,0.00242 0.00643,0.0051 0.00975,0.00772 7.85e-5,6.21e-5 2.964e-4,-6.23e-5 3.749e-4,0 0.00332,0.00264 0.00644,0.00558 0.00975,0.00846 7.26e-5,6.3e-5 3.025e-4,-6.33e-5 3.751e-4,0 0.00331,0.00289 0.00647,0.00604 0.00975,0.00919 6.68e-5,6.41e-5 3.082e-4,-6.43e-5 3.75e-4,0 0.00328,0.00317 0.0065,0.00647 0.00975,0.00993 1.204e-4,1.278e-4 2.546e-4,2.396e-4 3.749e-4,3.678e-4 0.00319,0.00341 0.00623,0.00695 0.00938,0.010665 1.161e-4,1.368e-4 2.591e-4,2.306e-4 3.75e-4,3.678e-4 0.00315,0.00375 0.00628,0.00769 0.00937,0.011769 1.073e-4,1.407e-4 2.679e-4,2.266e-4 3.75e-4,3.678e-4 0.0031,0.0041 0.00596,0.00841 0.009,0.012872 9.99e-5,1.461e-4 2.753e-4,2.214e-4 3.751e-4,3.678e-4 0.00314,0.00461 0.00631,0.00931 0.00937,0.014343 0.00605,0.00991 0.011254,0.019683 0.01575,0.029053 6.84e-5,1.427e-4 3.068e-4,2.252e-4 3.75e-4,3.678e-4 0.011355,0.023764 0.017794,0.045677 0.021749,0.066566 0.00238,0.012534 0.00372,0.024665 0.0045,0.036409 0.00156,0.023488 7.611e-4,0.045493 7.492e-4,0.066934 1.67e-5,0.014294 5.539e-4,0.028362 0.00225,0.042293 4.184e-4,0.00348 8.966e-4,0.00719 0.0015,0.010665 0.00181,0.010382 0.00432,0.020438 0.00825,0.030892 4.1e-5,1.101e-4 -4.14e-5,2.577e-4 0,3.678e-4 0.00129,0.0034 0.00293,0.00687 0.0045,0.010297 4.71e-5,1.037e-4 -4.75e-5,2.641e-4 0,3.678e-4 0.0032,0.00695 0.00709,0.013888 0.011625,0.020963 5.76e-5,9.04e-5 -5.79e-5,2.772e-4 0,3.678e-4 0.00226,0.0035 0.00488,0.00675 0.0075,0.010297 6.25e-5,8.47e-5 -6.27e-5,2.829e-4 0,3.677e-4 0.00264,0.00355 0.00559,0.00707 0.00863,0.010665 6.48e-5,7.72e-5 -6.51e-5,2.905e-4 0,3.677e-4 0.00616,0.00729 0.0134,0.01454 0.021375,0.022066 0.00402,0.0038 0.00822,0.0079 0.01275,0.011768 0.00453,0.00387 0.0091,0.00727 0.0135,0.010665 0.00334,0.00257 0.00647,0.00505 0.00975,0.00735 0.00177,0.00125 0.0035,0.00249 0.00525,0.00368 0.00649,0.00434 0.012889,0.00837 0.019125,0.011768 0.0012,6.576e-4 0.00256,0.00122 0.00375,0.00184 0.00375,0.00196 0.00757,0.00387 0.01125,0.00552 0.1075728,0.048363 0.1836875,-0.032421 0.333741,0.030524 0.1774304,0.07443 0.1314414,0.2131495 0.3239913,0.2309584 0.19255,0.017809 0.1752938,-0.1267788 0.3641151,-0.1673344 0.1888213,-0.040556 0.2361295,0.097892 0.4027392,0.00294 0.03251,-0.018527 0.054758,-0.037747 0.070498,-0.057372 1.762e-4,-2.193e-4 2.003e-4,-5.181e-4 3.749e-4,-7.333e-4 0.00675,-0.00848 0.012254,-0.017017 0.016875,-0.025743 7.891e-4,-0.00149 0.00151,-0.00291 0.00225,-0.00441 0.00174,-0.00353 0.0034,-0.00709 0.00488,-0.010665 0.0012,-0.00291 0.00232,-0.00589 0.00338,-0.00883 0.00149,-0.00414 0.00288,-0.0083 0.00412,-0.012505 0.00132,-0.00445 0.00264,-0.00872 0.00375,-0.01324 2.375e-4,-9.684e-4 5.181e-4,-0.00197 7.492e-4,-0.00294 0.00139,-0.00591 0.00254,-0.011987 0.00375,-0.01802 9.286e-4,-0.00465 0.0021,-0.00961 0.003,-0.014343 0.00177,-0.00929 0.00357,-0.018706 0.00562,-0.028318 3.644e-4,-0.0017 7.412e-4,-0.00344 0.00112,-0.00515 3.56e-4,-0.00159 7.492e-4,-0.00318 0.00112,-0.00478 0.00132,-0.00559 0.00252,-0.011208 0.00412,-0.016917 3.1e-5,-1.095e-4 -3.11e-5,-2.581e-4 0,-3.677e-4 0.00172,-0.00609 0.00382,-0.012162 0.006,-0.018389 0.00221,-0.00633 0.00468,-0.01265 0.0075,-0.019124 7.412e-4,-0.00169 0.00147,-0.00344 0.00225,-0.00515 0.00214,-0.00463 0.00462,-0.00928 0.00713,-0.013975 0.00344,-0.00644 0.007,-0.013271 0.01125,-0.019859 1.463e-4,-2.263e-4 2.276e-4,-5.101e-4 3.749e-4,-7.332e-4 0.00431,-0.00663 0.00938,-0.013082 0.014625,-0.019859 2.107e-4,-2.715e-4 5.38e-4,-4.663e-4 7.493e-4,-7.333e-4 0.00225,-0.00288 0.00432,-0.00591 0.00675,-0.00883 0.00315,-0.00375 0.00665,-0.0076 0.010125,-0.011401 0.008,-0.00875 0.016047,-0.016792 0.023999,-0.023905 0.00795,-0.00711 0.015744,-0.013416 0.023624,-0.019124 0.00394,-0.00285 0.00808,-0.00554 0.012,-0.00809 0.00784,-0.0051 0.015513,-0.00957 0.023249,-0.013607 0.011604,-0.00606 0.023179,-0.011093 0.034499,-0.015446 0.0074,-0.00285 0.014873,-0.00533 0.022124,-0.00772 0.014949,-0.00494 0.029283,-0.00914 0.043499,-0.013607 0.014074,-0.00443 0.027676,-0.00922 0.040874,-0.015079 0.0099,-0.00439 0.019545,-0.00932 0.028872,-0.015446 0.00311,-0.00204 0.00634,-0.00433 0.00937,-0.00662 0.00302,-0.00229 0.00603,-0.00478 0.009,-0.00735 0.0088,-0.00762 0.017365,-0.01663 0.025497,-0.027215 1.006e-4,-1.316e-4 2.748e-4,-2.355e-4 3.75e-4,-3.677e-4 0.00271,-0.00351 0.00527,-0.00714 0.00787,-0.011033 5.68e-5,-8.48e-5 -5.64e-5,-2.826e-4 0,-3.677e-4 0.00262,-0.0039 0.00535,-0.00782 0.00787,-0.012136 5.33e-5,-9.09e-5 -5.28e-5,-2.766e-4 0,-3.677e-4 0.00135,-0.00232 0.0028,-0.00491 0.00411,-0.00735 0.00122,-0.00222 0.00257,-0.00429 0.00375,-0.00662 0.00248,-0.00487 0.00472,-0.00972 0.00713,-0.015079 0.00476,-0.010598 0.00887,-0.020947 0.012,-0.030524 3.75e-5,-1.15e-4 -3.7e-5,-2.531e-4 0,-3.678e-4 0.00311,-0.00955 0.00545,-0.018541 0.00713,-0.027215 2.4e-5,-1.228e-4 -2.29e-5,-2.45e-4 0,-3.677e-4 8.13e-4,-0.00426 0.00135,-0.00842 0.00185,-0.012505 1.48e-5,-1.223e-4 -1.45e-5,-2.456e-4 0,-3.677e-4 0.00203,-0.016632 0.00153,-0.031714 -7.692e-4,-0.045971 -1.89e-5,-1.202e-4 1.99e-5,-2.477e-4 0,-3.678e-4 -5.42e-4,-0.00348 -0.00113,-0.00692 -0.0019,-0.010297 -2.62e-5,-1.172e-4 2.71e-5,-2.507e-4 0,-3.678e-4 -1.747e-4,-7.691e-4 -5.42e-4,-0.00144 -7.652e-4,-0.0022 -0.00149,-0.00616 -0.0032,-0.012095 -0.00525,-0.018021 -0.00226,-0.00655 -0.00475,-0.013098 -0.0075,-0.019491 -4.37e-5,-1.017e-4 4.43e-5,-2.66e-4 0,-3.677e-4 -0.00275,-0.0064 -0.00592,-0.012745 -0.009,-0.019124 -4.74e-5,-9.81e-5 4.74e-5,-2.696e-4 0,-3.678e-4 -0.0062,-0.012819 -0.012775,-0.025742 -0.019125,-0.039351 -6.63e-5,-1.434e-4 -3.082e-4,-2.243e-4 -3.75e-4,-3.678e-4 -0.00316,-0.00675 -0.0061,-0.013813 -0.009,-0.020963 -5.73e-5,-1.419e-4 -3.177e-4,-2.257e-4 -3.75e-4,-3.678e-4 -0.00289,-0.00717 -0.00539,-0.014717 -0.00787,-0.022434 -0.00131,-0.00409 -0.00257,-0.00787 -0.00375,-0.012136 -0.00203,-0.00743 -0.00384,-0.015473 -0.00525,-0.023537 -1.493e-4,-8.529e-4 -2.328e-4,-0.00171 -3.75e-4,-0.00257 -8.22e-5,-4.942e-4 -2.952e-4,-9.724e-4 -3.75e-4,-0.00147 -0.00357,-0.022153 -0.00469,-0.046591 -0.0019,-0.075025 0.00171,-0.017442 0.00483,-0.033323 0.00862,-0.04781 0.00632,-0.024146 0.015064,-0.044711 0.025122,-0.062889 0.008,-0.014447 0.016923,-0.027454 0.025876,-0.039719 6e-5,-8.21e-5 -5.96e-5,-2.856e-4 0,-3.678e-4 0.013583,-0.018593 0.02722,-0.035297 0.039374,-0.052958 0.00402,-0.00586 0.00807,-0.01153 0.011625,-0.017653 0.00357,-0.00611 0.00682,-0.012578 0.00975,-0.019124 0.00298,-0.00665 0.00534,-0.013314 0.0075,-0.020595 0.00104,-0.00348 0.00217,-0.00702 0.00298,-0.010665 2.57e-5,-1.138e-4 -2.49e-5,-2.54e-4 0,-3.679e-4 0.00167,-0.00743 0.00275,-0.015253 0.00338,-0.023537 9e-6,-1.165e-4 -8.6e-6,-2.511e-4 0,-3.678e-4 3.217e-4,-0.00421 7.213e-4,-0.00841 7.691e-4,-0.012872 3.83e-5,-0.00457 -8.98e-5,-0.00911 -3.746e-4,-0.013975 -2.658e-4,-0.00462 -9.007e-4,-0.00944 -0.00149,-0.014343 -1.39e-5,-1.174e-4 1.4e-5,-2.501e-4 0,-3.678e-4 -5.858e-4,-0.00492 -0.00135,-0.00985 -0.00226,-0.015079 -2.03e-5,-1.145e-4 2.03e-5,-2.531e-4 0,-3.677e-4 -9.006e-4,-0.00524 -0.00208,-0.01061 -0.00338,-0.016182 -2.76e-5,-1.195e-4 2.75e-5,-2.484e-4 0,-3.678e-4 -0.00131,-0.00558 -0.00266,-0.011043 -0.00411,-0.016182 -3.34e-5,-1.161e-4 3.29e-5,-2.518e-4 0,-3.676e-4 -0.00144,-0.00512 -0.00325,-0.010001 -0.00488,-0.014711 -3.87e-5,-1.114e-4 3.84e-5,-2.567e-4 0,-3.678e-4 -0.00167,-0.00481 -0.00343,-0.0092 -0.00525,-0.013607 -0.0037,-0.00892 -0.00766,-0.016837 -0.012,-0.024272 -0.00208,-0.00359 -0.00415,-0.00702 -0.00638,-0.010297 -5.74e-5,-8.43e-5 5.73e-5,-2.837e-4 0,-3.678e-4 -0.00221,-0.00328 -0.00478,-0.00619 -0.00713,-0.00919 -5.96e-5,-7.55e-5 5.91e-5,-2.924e-4 0,-3.678e-4 -0.00235,-0.003 -0.00503,-0.00571 -0.0075,-0.00846 -6.05e-5,-6.68e-5 6e-5,-3.012e-4 0,-3.678e-4 -0.00248,-0.00274 -0.00529,-0.00521 -0.00787,-0.00772 -0.0292,-0.028306 -0.06503,-0.043388 -0.1023708,-0.063997 -0.013579,-0.00749 -0.027203,-0.015857 -0.040872,-0.025743 -0.00334,-0.00241 -0.0068,-0.0051 -0.010126,-0.00772 -7.31e-5,-5.77e-5 -3.023e-4,5.79e-5 -3.75e-4,0 -0.00333,-0.00263 -0.00644,-0.00559 -0.00975,-0.00846 -6.72e-5,-5.87e-5 -3.075e-4,5.88e-5 -3.749e-4,0 -0.00332,-0.00288 -0.00647,-0.00605 -0.00975,-0.00919 -0.00342,-0.00328 -0.00675,-0.00633 -0.010125,-0.00993 -6.1e-5,-6.49e-5 6.08e-5,-3.028e-4 0,-3.678e-4 -0.01307,-0.014056 -0.026291,-0.030355 -0.038518,-0.0503859 -0.00614,-0.0100613 -0.011208,-0.0199126 -0.01575,-0.0294212 -4.89e-5,-1.025e-4 4.88e-5,-2.6541e-4 0,-3.6783e-4 -0.018055,-0.0379087 -0.024554,-0.0717023 -0.026624,-0.10297505 -0.00156,-0.023518 -7.612e-4,-0.0454583 -7.492e-4,-0.0669338 3.4e-6,-0.007159 -7.72e-5,-0.0142908 -3.749e-4,-0.0213305 -5.938e-4,-0.0140803 -0.00202,-0.0279913 -0.00525,-0.0419255 -7.851e-4,-0.003371 -0.002,-0.006917 -0.003,-0.0102968 -3.3e-5,-1.0967e-4 3.33e-5,-2.5804e-4 0,-3.6771e-4 -0.0031,-0.0103761 -0.00739,-0.0206957 -0.013125,-0.0312599 -4.9e-5,-8.963e-5 4.93e-5,-2.7816e-4 0,-3.6787e-4 -0.00582,-0.0106667 -0.013198,-0.0213205 -0.0225,-0.0323634 -0.0031,-0.003678 -0.00657,-0.007298 -0.010125,-0.0110329 -0.00355,-0.003734 -0.00723,-0.007602 -0.01125,-0.0114011 -0.00402,-0.003802 -0.00822,-0.007533 -0.01275,-0.0114011 -0.00453,-0.003866 -0.0091,-0.007642 -0.0135,-0.0110333 -0.00879,-0.006782 -0.017176,-0.0126102 -0.025499,-0.017653 -0.00417,-0.002519 -0.00831,-0.004861 -0.012375,-0.006989 C 2.8947493,0.5263222 2.8831413,0.5217022 2.8716813,0.518363 2.8678613,0.517251 2.8638213,0.516247 2.8600563,0.515426 2.8487723,0.512935 2.8380043,0.511819 2.8270573,0.511385 c -0.010947,-4.4235e-4 -0.022102,-1.2769e-4 -0.032999,7.3327e-4 -0.00714,5.6987e-4 -0.014523,0.001347 -0.021749,0.002204 -0.015277,0.001829 -0.031041,0.00385 -0.047249,0.005516 -0.014748,0.001518 -0.030001,0.002762 -0.046124,0.002574 -1.292e-4,-1.63e-6 -2.458e-4,1.87e-6 -3.75e-4,0 -1.273e-4,-1.51e-6 -2.476e-4,1.83e-6 -3.75e-4,0 -0.012695,-1.9069e-4 -0.026254,-0.001227 -0.040124,-0.003312 -0.00934,-0.001403 -0.018901,-0.003348 -0.028874,-0.005885 -0.00997,-0.002539 -0.020053,-0.005672 -0.030749,-0.009562 -0.00535,-0.001945 -0.010955,-0.003929 -0.0165,-0.006252 -0.011089,-0.004652 -0.021293,-0.009599 -0.030749,-0.0147107 -0.014184,-0.007666 -0.026726,-0.0158249 -0.037872,-0.0242712 -0.00744,-0.005625 -0.014255,-0.0114292 -0.020624,-0.0172851 -0.00318,-0.00293 -0.00604,-0.005854 -0.009,-0.008826 -0.023684,-0.0237499 -0.040702,-0.0486099 -0.058124,-0.0717148 -0.00871,-0.0115523 -0.017526,-0.022793 -0.027374,-0.033099 -0.00486,-0.005088 -0.00991,-0.0100577 -0.015375,-0.0147106 -7.15e-5,-6.094e-5 -3.032e-4,6.085e-5 -3.75e-4,0 -0.0027,-0.002293 -0.00536,-0.004818 -0.00825,-0.006988 -7.82e-5,-5.869e-5 -2.967e-4,5.864e-5 -3.75e-4,0 -0.00586,-0.004386 -0.011955,-0.008683 -0.01875,-0.0125043 -9.37e-5,-5.266e-5 -2.809e-4,5.258e-5 -3.749e-4,0 -0.00336,-0.001881 -0.00688,-0.003788 -0.010499,-0.005516 -9.99e-5,-4.753e-5 -2.748e-4,4.74e-5 -3.75e-4,0 -0.00364,-0.001722 -0.00732,-0.003589 -0.01125,-0.005149 -1.057e-4,-4.183e-5 -2.692e-4,4.169e-5 -3.75e-4,0 -0.00394,-0.001553 -0.00812,-0.003036 -0.012375,-0.004413 -1.112e-4,-3.59e-5 -2.635e-4,3.575e-5 -3.75e-4,0 -0.00427,-0.001376 -0.00851,-0.002859 -0.013125,-0.004045 -1.13e-4,-2.895e-5 -2.619e-4,2.881e-5 -3.751e-4,0 -0.00464,-0.001186 -0.00961,-0.002323 -0.014625,-0.00331 -1.155e-4,-2.266e-5 -2.591e-4,2.253e-5 -3.75e-4,0 -0.010286,-0.002014 -0.02134,-0.003302 -0.033374,-0.004413 -0.00602,-5.5753e-4 -0.011629,-0.001137 -0.01725,-0.001469 -0.00562,-3.3211e-4 -0.011253,-4.1366e-4 -0.0165,-3.6774e-4 z"
       id="rect34051-5" />
    <text
       xml:space="preserve"
       style="font-size:3.175px;fill:#eda200;fill-opacity:1;stroke:none;stroke-width:0;stroke-dasharray:none;paint-order:stroke fill markers"
       x="3.6363566"
       y="3.8403757"
       id="text37978"><tspan
         sodipodi:role="line"
         id="tspan37976"
         style="stroke-width:0"
         x="3.6363566"
         y="3.8403757" /></text>
  </g>
</svg>
