<?xml version="1.0" encoding="UTF-8" standalone="no"?>
<!-- Created with Inkscape (http://www.inkscape.org/) -->

<svg
   width="13"
   height="13"
   viewBox="0 0 3.4395832 3.4395832"
   version="1.1"
   id="svg30428"
   inkscape:version="1.2.1 (9c6d41e, 2022-07-14)"
   sodipodi:docname="cbToolbar.svg"
   xmlns:inkscape="http://www.inkscape.org/namespaces/inkscape"
   xmlns:sodipodi="http://sodipodi.sourceforge.net/DTD/sodipodi-0.dtd"
   xmlns="http://www.w3.org/2000/svg"
   xmlns:svg="http://www.w3.org/2000/svg">
  <sodipodi:namedview
     id="namedview30430"
     pagecolor="#ffffff"
     bordercolor="#000000"
     borderopacity="0.25"
     inkscape:showpageshadow="2"
     inkscape:pageopacity="0.0"
     inkscape:pagecheckerboard="false"
     inkscape:deskcolor="#d1d1d1"
     inkscape:document-units="px"
     showgrid="true"
     inkscape:zoom="23.175"
     inkscape:cx="8.0906149"
     inkscape:cy="20.517799"
     inkscape:window-width="1390"
     inkscape:window-height="1205"
     inkscape:window-x="0"
     inkscape:window-y="25"
     inkscape:window-maximized="0"
     inkscape:current-layer="layer1">
    <inkscape:grid
       type="xygrid"
       id="grid32364"
       originx="0"
       originy="0" />
  </sodipodi:namedview>
  <defs
     id="defs30425" />
  <g
     inkscape:label="Layer 1"
     inkscape:groupmode="layer"
     id="layer1">
    <path
       style="fill:#6e6e6e;fill-opacity:1;stroke:none;stroke-width:0;stroke-dasharray:none;paint-order:stroke fill markers"
       d="m 1.9983975,2.175782 c -0.017857,2.567e-4 -0.037234,0.00233 -0.058632,0.00694 C 1.8048273,2.211702 1.7860799,2.2992411 1.6987539,2.3272 l 0.066588,0.6674991 h 2.947e-4 l 0.2681173,-0.3759406 0.3370622,0.3178569 0.00354,-2.89e-4 -0.074543,-0.748408 C 2.1715985,2.2579552 2.121708,2.1740099 1.9983975,2.175782 Z"
       id="path34217-7" />
    <path
       style="fill:#6e6e6e;fill-opacity:1;stroke:none;stroke-width:0;stroke-dasharray:none;paint-order:stroke fill markers"
       d="m 1.2105441,2.1020971 c -0.051925,-7.327e-4 -0.094277,0.012618 -0.138773,0.00982 l -0.24896634,0.906763 2.9465e-4,2.89e-4 0.38597139,-0.2589088 0.2012356,0.4140808 0.00324,8.721e-4 0.2304044,-0.8391454 c -0.010456,2.256e-4 -0.021698,-3.14e-5 -0.033883,-0.00116 C 1.4355044,2.3185649 1.4768805,2.1924028 1.3160232,2.124925 1.275809,2.108055 1.2414895,2.1025353 1.2105441,2.1020971 Z"
       id="path34215-9" />
    <path
       style="fill:#6e6e6e;fill-opacity:1;stroke:none;stroke-width:0;stroke-dasharray:none;paint-order:stroke fill markers"
       d="m 1.7883228,0.26459669 c -0.00387,3.386e-5 -0.00757,6.332e-5 -0.011196,2.8894e-4 -0.014378,9.1457e-4 -0.027055,0.003422 -0.038302,0.006935 -0.00575,0.001791 -0.011068,0.003724 -0.016205,0.006068 -0.00497,0.002274 -0.00961,0.005094 -0.014143,0.007802 -0.00231,0.001388 -0.00485,0.002559 -0.00707,0.004046 -0.00876,0.005857 -0.016784,0.0126874 -0.024749,0.0196492 -0.00806,0.007074 -0.015858,0.0144289 -0.02416,0.0219611 -0.00413,0.003731 -0.00828,0.007263 -0.01267,0.0109804 -1.05e-4,8.951e-5 -1.894e-4,1.995e-4 -2.946e-4,2.8898e-4 -0.010448,0.008887 -0.02188,0.0174359 -0.035062,0.0254284 -5.981e-4,3.6322e-4 -0.00116,7.9514e-4 -0.00177,0.001156 -0.016827,0.00999 -0.036479,0.0187114 -0.06099,0.0251395 -0.00408,0.001068 -0.00832,0.002245 -0.01267,0.003178 -0.00464,9.955e-4 -0.00913,0.001582 -0.013554,0.002314 -0.013276,0.002195 -0.025521,0.003303 -0.037124,0.003467 -0.015471,2.2263e-4 -0.02982,-0.001193 -0.043017,-0.003467 -0.013197,-0.002273 -0.025401,-0.005451 -0.037124,-0.008958 -0.026335,-0.007877 -0.04997,-0.017085 -0.075426,-0.0208052 -0.00284,-4.0706e-4 -0.00567,-8.9572e-4 -0.00854,-0.001156 -0.011542,-0.00103 -0.023665,-7.2017e-4 -0.036535,0.001443 -0.00321,5.3856e-4 -0.00639,0.001234 -0.00972,0.002022 -0.00666,0.001578 -0.013723,0.003662 -0.020919,0.006357 -0.010794,0.004042 -0.0222,0.009477 -0.034472,0.016471 -0.00573,0.003265 -0.010959,0.006523 -0.01591,0.009825 -0.00752,0.005016 -0.014113,0.0102034 -0.020035,0.0153149 -0.00268,0.002317 -0.00527,0.0046 -0.00766,0.006935 -0.00122,0.00119 -0.00269,0.00227 -0.00383,0.003467 -4.66e-5,4.869e-5 4.65e-5,2.4026e-4 0,2.8898e-4 -0.00459,0.004824 -0.00854,0.009527 -0.01208,0.0144482 -7.69e-5,1.0622e-4 -2.183e-4,1.8265e-4 -2.947e-4,2.8896e-4 -0.0017,0.00238 -0.00323,0.004821 -0.00471,0.007224 -6.98e-5,1.1182e-4 -2.254e-4,1.7701e-4 -2.947e-4,2.8889e-4 -0.00302,0.004921 -0.00568,0.009997 -0.00796,0.0150259 -0.00464,0.010283 -0.00797,0.0207216 -0.010607,0.0314965 -0.00131,0.005385 -0.00243,0.0109492 -0.00354,0.016471 -0.00222,0.0110262 -0.00427,0.0221967 -0.00678,0.033808 -0.00126,0.005906 -0.00248,0.0118462 -0.00412,0.0179154 -0.00161,0.005964 -0.00343,0.0117849 -0.0056,0.0179154 -3.14e-5,8.924e-5 3.15e-5,1.9965e-4 0,2.8895e-4 -0.00105,0.002981 -0.00231,0.005934 -0.00354,0.008958 -0.00254,0.006306 -0.00544,0.0125833 -0.00884,0.0190718 -0.00168,0.003199 -0.00339,0.006291 -0.0053,0.009536 -4.4e-5,7.452e-5 4.42e-5,2.1439e-4 0,2.8898e-4 -0.00189,0.003175 -0.00404,0.006315 -0.00619,0.009536 -0.00442,0.006653 -0.00936,0.0133771 -0.015027,0.0202275 -0.0028,0.003387 -0.0057,0.006675 -0.00884,0.010114 -5.14e-5,5.639e-5 5.16e-5,2.3261e-4 0,2.8898e-4 -0.00629,0.006877 -0.012608,0.0129046 -0.018857,0.0184934 -0.00625,0.005586 -0.01237,0.0105418 -0.018562,0.0150259 -0.0031,0.002242 -0.00635,0.004356 -0.00943,0.006357 -0.00616,0.004003 -0.012189,0.007517 -0.018267,0.0106915 -0.00912,0.004764 -0.018212,0.008716 -0.027106,0.0121364 -0.023719,0.009122 -0.046308,0.0145418 -0.067766,0.0222499 -8.59e-5,3.081e-5 -2.087e-4,-3.087e-5 -2.946e-4,0 -0.00527,0.001901 -0.010513,0.004093 -0.015616,0.006357 -0.010369,0.004602 -0.0204945,0.010135 -0.0300527,0.0173377 -0.002389,0.0018 -0.004738,0.003758 -0.007071,0.005779 -0.004667,0.004043 -0.009119,0.00852 -0.0135532,0.0135812 -0.00222,0.00253 -0.004328,0.004982 -0.006482,0.007802 -4.762e-5,6.215e-5 4.763e-5,2.2673e-4 0,2.8901e-4 -0.00211,0.002768 -0.004435,0.005603 -0.006482,0.008669 -4.494e-5,6.702e-5 4.49e-5,2.2181e-4 0,2.8899e-4 -0.002044,0.003072 -0.004202,0.006144 -0.006188,0.009535 -4.315e-5,7.37e-5 4.321e-5,2.1513e-4 0,2.8899e-4 -0.001985,0.003402 -0.003973,0.006946 -0.005893,0.0106912 -4.042e-5,7.872e-5 4.039e-5,2.1002e-4 0,2.8898e-4 -0.001923,0.003756 -0.004038,0.007716 -0.005893,0.0118478 -3.679e-5,8.156e-5 3.67e-5,2.0727e-4 0,2.8899e-4 -0.003742,0.008329 -0.006965,0.01617 -0.009428,0.0236948 -0.001274,0.003889 -0.002279,0.007574 -0.003241,0.0112695 -9.3971e-4,0.003614 -0.001697,0.006954 -0.002358,0.0104028 -1.723e-5,8.91e-5 1.703e-5,1.9996e-4 0,2.8899e-4 -6.3564e-4,0.003347 -0.001084,0.006624 -0.001475,0.009825 -4.1958e-4,0.003386 -7.233e-4,0.006584 -8.8314e-4,0.009825 -3.1625e-4,0.006301 -2.4574e-4,0.0123766 2.9459e-4,0.0182042 2.7022e-4,0.002915 7.233e-4,0.005555 0.001177,0.00838 4.6341e-4,0.002915 8.2971e-4,0.005555 0.001472,0.00838 0.001243,0.005469 0.002915,0.0109576 0.004714,0.0161818 0.0018,0.005225 0.003981,0.010219 0.006188,0.0153151 0.006618,0.0152892 0.0145365,0.0303105 0.0220975,0.0465231 0.00504,0.010808 0.009889,0.022303 0.0138479,0.034676 0.001979,0.00618 0.00382,0.012609 0.005302,0.01936 0.001481,0.00675 0.002699,0.013664 0.003535,0.021094 1.1e-5,9.61e-5 -1.076e-5,1.931e-4 0,2.891e-4 8.1715e-4,0.00735 0.001139,0.014993 0.001179,0.023116 6.2e-7,9.78e-5 -4.8e-7,1.912e-4 0,2.89e-4 1.532e-5,0.00402 -9.272e-5,0.00819 -2.9457e-4,0.012425 -4.56e-6,9.84e-5 4.64e-6,1.905e-4 0,2.89e-4 -2.0719e-4,0.00424 -4.3835e-4,0.00882 -8.8e-4,0.013292 -9.1143e-4,0.00914 -0.002176,0.017646 -0.003831,0.025717 -8.2657e-4,0.00404 -0.001659,0.00776 -0.002652,0.011559 -2.302e-5,8.85e-5 2.314e-5,2.007e-4 0,2.889e-4 -0.00496,0.018862 -0.011874,0.034893 -0.0197406,0.049124 -6.09e-5,1.104e-4 -2.3356e-4,1.786e-4 -2.9465e-4,2.889e-4 -0.0157752,0.028421 -0.0354737,0.049861 -0.0512664,0.072818 -0.004746,0.0069 -0.009122,0.013959 -0.012964,0.021383 -0.001293,0.0025 -0.002671,0.00492 -0.00383,0.00751 -0.002301,0.00515 -0.004214,0.010551 -0.005893,0.016182 -8.3914e-4,0.00282 -0.001697,0.0057 -0.002358,0.00867 -6.6067e-4,0.00296 -0.001008,0.00584 -0.001472,0.00896 -4.8534e-4,0.00321 -9.1457e-4,0.00642 -0.001177,0.00983 -5.1039e-4,0.00662 -7.2018e-4,0.013646 -2.9465e-4,0.021094 4.2584e-4,0.00745 0.001462,0.015274 0.002946,0.023695 7.4209e-4,0.00421 0.001619,0.00852 0.002652,0.013003 2.142e-5,9.35e-5 -2.158e-5,1.951e-4 0,2.89e-4 0.00206,0.00896 0.004453,0.017007 0.007071,0.024561 0.001312,0.00378 0.002683,0.00723 0.004125,0.010691 0.0100835,0.024347 0.0230844,0.040973 0.0383025,0.054036 0.004334,0.00372 0.008918,0.0072 0.0135532,0.010403 0.009217,0.00639 0.0190661,0.01192 0.0291688,0.017338 7.543e-5,4.04e-5 2.1919e-4,-4.04e-5 2.9465e-4,0 0.0151813,0.00811 0.031108,0.01608 0.0471414,0.026006 0.00176,0.00108 0.00354,0.00233 0.0053,0.00347 0.00364,0.00236 0.00728,0.00489 0.010902,0.00751 6.73e-5,4.86e-5 2.274e-4,-4.87e-5 2.947e-4,0 0.00262,0.0019 0.00505,0.00401 0.00766,0.00607 6.17e-5,4.88e-5 2.329e-4,-4.9e-5 2.945e-4,0 0.00261,0.00207 0.00506,0.00438 0.00766,0.00665 5.7e-5,4.95e-5 2.376e-4,-4.97e-5 2.947e-4,0 0.0026,0.00227 0.00508,0.00475 0.00766,0.00722 5.25e-5,5.04e-5 2.421e-4,-5.05e-5 2.946e-4,0 0.00258,0.00249 0.00511,0.00508 0.00766,0.0078 9.46e-5,1.004e-4 2.001e-4,1.882e-4 2.946e-4,2.89e-4 0.00251,0.00268 0.00489,0.00546 0.00737,0.00838 9.12e-5,1.075e-4 2.036e-4,1.812e-4 2.946e-4,2.89e-4 0.00248,0.00295 0.00493,0.00604 0.00736,0.00925 8.43e-5,1.106e-4 2.105e-4,1.781e-4 2.946e-4,2.89e-4 0.00244,0.00322 0.00468,0.00661 0.00707,0.010114 7.84e-5,1.148e-4 2.163e-4,1.74e-4 2.947e-4,2.89e-4 0.00247,0.00362 0.00496,0.00731 0.00736,0.011269 0.00475,0.00779 0.00884,0.015465 0.012375,0.022827 5.38e-5,1.121e-4 2.411e-4,1.769e-4 2.947e-4,2.89e-4 0.00892,0.018672 0.013981,0.035889 0.017088,0.052302 0.00187,0.00985 0.00292,0.01938 0.00354,0.028607 0.00123,0.018455 5.98e-4,0.035744 5.886e-4,0.052591 1.31e-5,0.011231 4.352e-4,0.022284 0.00177,0.03323 3.287e-4,0.00273 7.044e-4,0.00565 0.00118,0.00838 0.00142,0.00816 0.00339,0.016058 0.00648,0.024272 3.22e-5,8.66e-5 -3.25e-5,2.026e-4 0,2.891e-4 0.00101,0.00267 0.0023,0.0054 0.00354,0.00809 3.7e-5,8.15e-5 -3.73e-5,2.075e-4 0,2.89e-4 0.00251,0.00546 0.00557,0.010912 0.00913,0.016471 4.53e-5,7.11e-5 -4.55e-5,2.178e-4 0,2.89e-4 0.00178,0.00275 0.00383,0.0053 0.00589,0.00809 4.91e-5,6.66e-5 -4.93e-5,2.223e-4 0,2.889e-4 0.00207,0.00279 0.00439,0.00556 0.00678,0.00838 5.09e-5,6.06e-5 -5.12e-5,2.282e-4 0,2.889e-4 0.00484,0.00573 0.010529,0.011424 0.016795,0.017338 0.00316,0.00299 0.00646,0.00621 0.010018,0.00925 0.00356,0.00304 0.00715,0.00571 0.010607,0.00838 0.00262,0.00202 0.00508,0.00397 0.00766,0.00577 0.00139,9.822e-4 0.00275,0.00196 0.00412,0.00289 0.0051,0.00341 0.010127,0.00658 0.015027,0.00925 9.429e-4,5.166e-4 0.00201,9.585e-4 0.00295,0.00145 0.00295,0.00154 0.00595,0.00304 0.00884,0.00434 0.084521,0.037999 0.1443258,-0.025474 0.262225,0.023983 0.1394095,0.058481 0.1032753,0.1674746 0.2545644,0.1814673 0.1512893,0.013993 0.1377308,-0.099612 0.2860904,-0.1314769 0.1483595,-0.031865 0.1855302,0.076915 0.3164378,0.00231 0.025543,-0.014557 0.043024,-0.029658 0.055391,-0.045078 1.385e-4,-1.724e-4 1.574e-4,-4.071e-4 2.946e-4,-5.761e-4 0.0053,-0.00666 0.00963,-0.01337 0.013259,-0.020227 6.2e-4,-0.00117 0.00119,-0.00229 0.00177,-0.00347 0.00137,-0.00277 0.00267,-0.00557 0.00383,-0.00838 9.429e-4,-0.00229 0.00182,-0.00463 0.00266,-0.00694 0.00117,-0.00325 0.00226,-0.00652 0.00324,-0.00983 0.00104,-0.0035 0.00207,-0.00685 0.00295,-0.010403 1.866e-4,-7.609e-4 4.071e-4,-0.00155 5.887e-4,-0.00231 0.00109,-0.00464 0.002,-0.00942 0.00295,-0.014159 7.296e-4,-0.00365 0.00165,-0.00755 0.00236,-0.011269 0.00139,-0.0073 0.0028,-0.014698 0.00442,-0.02225 2.863e-4,-0.00134 5.823e-4,-0.0027 8.8e-4,-0.00405 2.797e-4,-0.00125 5.886e-4,-0.0025 8.8e-4,-0.00376 0.00104,-0.00439 0.00198,-0.00881 0.00324,-0.013292 2.44e-5,-8.61e-5 -2.44e-5,-2.028e-4 0,-2.889e-4 0.00135,-0.00479 0.003,-0.00956 0.00471,-0.014448 0.00174,-0.00497 0.00368,-0.00994 0.00589,-0.015026 5.824e-4,-0.00133 0.00116,-0.0027 0.00177,-0.00405 0.00168,-0.00364 0.00363,-0.00729 0.0056,-0.01098 0.0027,-0.00506 0.0055,-0.010427 0.00884,-0.015604 1.15e-4,-1.778e-4 1.789e-4,-4.008e-4 2.946e-4,-5.761e-4 0.00339,-0.00521 0.00737,-0.010279 0.011491,-0.015604 1.655e-4,-2.133e-4 4.227e-4,-3.664e-4 5.887e-4,-5.761e-4 0.00177,-0.00226 0.00339,-0.00464 0.0053,-0.00694 0.00248,-0.00295 0.00523,-0.00597 0.00796,-0.00896 0.00629,-0.00687 0.012608,-0.013194 0.018856,-0.018782 0.00625,-0.00559 0.01237,-0.010541 0.018562,-0.015026 0.0031,-0.00224 0.00635,-0.00435 0.00943,-0.00636 0.00616,-0.00401 0.012189,-0.00752 0.018267,-0.010691 0.00912,-0.00476 0.018212,-0.00872 0.027106,-0.012136 0.00581,-0.00224 0.011686,-0.00419 0.017383,-0.00607 0.011746,-0.00388 0.023008,-0.00718 0.034178,-0.010691 0.011058,-0.00348 0.021745,-0.00724 0.032115,-0.011848 0.00778,-0.00345 0.015357,-0.00732 0.022685,-0.012136 0.00244,-0.0016 0.00498,-0.0034 0.00736,-0.0052 0.00237,-0.0018 0.00474,-0.00376 0.00707,-0.00578 0.00691,-0.00599 0.013644,-0.013066 0.020033,-0.021383 7.9e-5,-1.034e-4 2.159e-4,-1.85e-4 2.946e-4,-2.889e-4 0.00213,-0.00276 0.00414,-0.00561 0.00618,-0.00867 4.46e-5,-6.67e-5 -4.43e-5,-2.221e-4 0,-2.889e-4 0.00206,-0.00306 0.0042,-0.00614 0.00618,-0.00954 4.19e-5,-7.14e-5 -4.14e-5,-2.173e-4 0,-2.889e-4 0.00106,-0.00182 0.0022,-0.00386 0.00323,-0.00578 9.586e-4,-0.00174 0.00202,-0.00337 0.00295,-0.0052 0.00195,-0.00383 0.00371,-0.00764 0.0056,-0.011848 0.00374,-0.00833 0.00697,-0.016458 0.00943,-0.023983 2.94e-5,-9.04e-5 -2.91e-5,-1.989e-4 0,-2.89e-4 0.00244,-0.0075 0.00428,-0.014568 0.0056,-0.021383 1.89e-5,-9.65e-5 -1.8e-5,-1.925e-4 0,-2.889e-4 6.388e-4,-0.00335 0.00106,-0.00662 0.00145,-0.00983 1.16e-5,-9.61e-5 -1.14e-5,-1.929e-4 0,-2.889e-4 0.0016,-0.013068 0.0012,-0.024918 -6.044e-4,-0.03612 -1.48e-5,-9.46e-5 1.56e-5,-1.946e-4 0,-2.89e-4 -4.259e-4,-0.00273 -8.879e-4,-0.00544 -0.00149,-0.00809 -2.05e-5,-9.21e-5 2.13e-5,-1.97e-4 0,-2.89e-4 -1.372e-4,-6.043e-4 -4.258e-4,-0.00113 -6.012e-4,-0.00173 -0.00117,-0.00484 -0.00251,-0.0095 -0.00412,-0.014159 -0.00178,-0.00515 -0.00373,-0.010291 -0.00589,-0.015314 -3.44e-5,-7.98e-5 3.48e-5,-2.089e-4 0,-2.888e-4 -0.00216,-0.00503 -0.00465,-0.010014 -0.00707,-0.015026 -3.72e-5,-7.71e-5 3.73e-5,-2.118e-4 0,-2.89e-4 -0.00487,-0.010072 -0.010038,-0.020226 -0.015027,-0.030919 -5.21e-5,-1.127e-4 -2.422e-4,-1.762e-4 -2.947e-4,-2.89e-4 -0.00248,-0.0053 -0.00479,-0.010853 -0.00707,-0.016471 -4.5e-5,-1.115e-4 -2.496e-4,-1.773e-4 -2.946e-4,-2.89e-4 -0.00227,-0.00563 -0.00423,-0.011563 -0.00618,-0.017627 -0.00103,-0.00321 -0.00202,-0.00618 -0.00295,-0.00954 -0.0016,-0.00584 -0.00302,-0.012157 -0.00413,-0.018493 -1.173e-4,-6.701e-4 -1.83e-4,-0.00134 -2.947e-4,-0.00202 -6.46e-5,-3.883e-4 -2.319e-4,-7.641e-4 -2.946e-4,-0.00116 -0.0028,-0.017406 -0.00368,-0.036607 -0.00149,-0.058948 0.00134,-0.013704 0.0038,-0.026182 0.00677,-0.037565 0.00497,-0.018972 0.011836,-0.03513 0.019739,-0.049413 0.00629,-0.011351 0.013297,-0.021571 0.020331,-0.031208 4.72e-5,-6.46e-5 -4.68e-5,-2.244e-4 0,-2.89e-4 0.010672,-0.014609 0.021387,-0.027733 0.030937,-0.04161 0.00316,-0.0046 0.00634,-0.00906 0.00913,-0.01387 0.0028,-0.0048 0.00536,-0.00988 0.00766,-0.015026 0.00234,-0.00523 0.0042,-0.010461 0.00589,-0.016182 8.171e-4,-0.00273 0.0017,-0.00552 0.00234,-0.00838 2.02e-5,-8.94e-5 -1.95e-5,-1.996e-4 0,-2.891e-4 0.00131,-0.00584 0.00216,-0.011984 0.00266,-0.018493 7.1e-6,-9.15e-5 -6.7e-6,-1.973e-4 0,-2.89e-4 2.528e-4,-0.00331 5.668e-4,-0.00661 6.043e-4,-0.010114 3.01e-5,-0.00359 -7.05e-5,-0.00716 -2.943e-4,-0.01098 -2.088e-4,-0.00363 -7.077e-4,-0.00742 -0.00117,-0.011269 -1.09e-5,-9.23e-5 1.1e-5,-1.966e-4 0,-2.89e-4 -4.603e-4,-0.00387 -0.00106,-0.00774 -0.00178,-0.011848 -1.6e-5,-9e-5 1.59e-5,-1.989e-4 0,-2.889e-4 -7.076e-4,-0.00412 -0.00163,-0.00834 -0.00266,-0.012714 -2.17e-5,-9.39e-5 2.16e-5,-1.952e-4 0,-2.89e-4 -0.00103,-0.00438 -0.00209,-0.00868 -0.00323,-0.012714 -2.63e-5,-9.13e-5 2.58e-5,-1.98e-4 0,-2.889e-4 -0.00113,-0.004023 -0.00255,-0.007858 -0.00383,-0.0115587 -3.04e-5,-8.752e-5 3.02e-5,-2.0169e-4 0,-2.8898e-4 -0.00131,-0.003779 -0.00269,-0.007229 -0.00412,-0.0106912 -0.00291,-0.007009 -0.00602,-0.0132291 -0.00943,-0.0190708 -0.00163,-0.002821 -0.00326,-0.005516 -0.00501,-0.008091 -4.51e-5,-6.623e-5 4.5e-5,-2.229e-4 0,-2.8898e-4 -0.00174,-0.002577 -0.00376,-0.004864 -0.0056,-0.007221 -4.68e-5,-5.932e-5 4.65e-5,-2.2975e-4 0,-2.8899e-4 -0.00185,-0.002357 -0.00395,-0.004486 -0.00589,-0.006647 -4.76e-5,-5.248e-5 4.71e-5,-2.3666e-4 0,-2.8898e-4 -0.00195,-0.002153 -0.00416,-0.004094 -0.00618,-0.006066 -0.022943,-0.0222404 -0.051095,-0.0340906 -0.080434,-0.0502833 -0.010669,-0.005885 -0.021374,-0.0124591 -0.032114,-0.0202266 -0.00262,-0.001894 -0.00534,-0.004007 -0.00796,-0.006066 -5.74e-5,-4.533e-5 -2.375e-4,4.55e-5 -2.946e-4,0 -0.00262,-0.002066 -0.00506,-0.004392 -0.00766,-0.006647 -5.28e-5,-4.612e-5 -2.417e-4,4.62e-5 -2.946e-4,0 -0.00261,-0.002263 -0.00508,-0.004754 -0.00766,-0.007221 -0.00269,-0.002577 -0.0053,-0.004974 -0.00796,-0.007802 -4.79e-5,-5.099e-5 4.78e-5,-2.3791e-4 0,-2.8898e-4 -0.010269,-0.011044 -0.020657,-0.0238504 -0.030264,-0.0395889 -0.00482,-0.007905 -0.00881,-0.0156456 -0.012375,-0.0231166 -3.84e-5,-8.054e-5 3.83e-5,-2.0854e-4 0,-2.8901e-4 -0.014186,-0.0297854 -0.019292,-0.0563375 -0.020919,-0.0809089 -0.00123,-0.0184784 -5.981e-4,-0.0357172 -5.887e-4,-0.0525908 2.7e-6,-0.005625 -6.07e-5,-0.0112285 -2.946e-4,-0.0167597 -4.665e-4,-0.0110631 -0.00159,-0.0219932 -0.00412,-0.0329415 -6.168e-4,-0.002649 -0.00157,-0.005435 -0.00236,-0.00809 -2.59e-5,-8.617e-5 2.62e-5,-2.0275e-4 0,-2.8892e-4 -0.00244,-0.008153 -0.00581,-0.0162609 -0.010312,-0.0245613 -3.85e-5,-7.042e-5 3.87e-5,-2.1855e-4 0,-2.8904e-4 -0.00457,-0.008381 -0.01037,-0.0167518 -0.017679,-0.0254284 -0.00244,-0.00289 -0.00516,-0.005734 -0.00796,-0.008669 -0.00279,-0.002934 -0.00568,-0.005973 -0.00884,-0.008958 -0.00316,-0.002987 -0.00646,-0.005919 -0.010018,-0.008958 -0.00356,-0.003038 -0.00715,-0.006004 -0.010607,-0.008669 -0.00691,-0.005329 -0.013495,-0.009908 -0.020035,-0.0138702 -0.00328,-0.001979 -0.00653,-0.003819 -0.00972,-0.005491 -0.00957,-0.005016 -0.018691,-0.008646 -0.027696,-0.0112697 -0.003,-8.7371e-4 -0.00618,-0.001663 -0.00913,-0.002308 -0.00887,-0.001957 -0.017326,-0.002834 -0.025928,-0.003175 -0.0086,-3.4756e-4 -0.017366,-1.0032e-4 -0.025928,5.7614e-4 -0.00561,4.4776e-4 -0.011411,0.001058 -0.017088,0.001732 -0.012003,0.001437 -0.024389,0.003025 -0.037124,0.004334 -0.011588,0.001193 -0.023572,0.00217 -0.03624,0.002022 -1.015e-4,-1.28e-6 -1.931e-4,1.47e-6 -2.946e-4,0 -1.001e-4,-1.18e-6 -1.946e-4,1.44e-6 -2.947e-4,0 -0.00997,-1.4983e-4 -0.020628,-9.6407e-4 -0.031526,-0.002602 -0.00734,-0.001102 -0.014851,-0.002631 -0.022687,-0.004624 -0.00783,-0.001995 -0.015756,-0.004457 -0.02416,-0.007513 -0.0042,-0.001528 -0.00861,-0.003087 -0.012964,-0.004912 -0.00871,-0.003655 -0.01673,-0.007542 -0.02416,-0.0115584 -0.011145,-0.006023 -0.020999,-0.0124339 -0.029756,-0.0190702 -0.00585,-0.00442 -0.0112,-0.00898 -0.016205,-0.0135811 -0.0025,-0.002302 -0.00475,-0.0046 -0.00707,-0.006935 C 1.97387,0.37768256 1.960499,0.35814966 1.94681,0.33999586 1.93997,0.33091886 1.93304,0.32208706 1.925302,0.31398946 c -0.00382,-0.003998 -0.00779,-0.007902 -0.01208,-0.0115583 -5.61e-5,-4.788e-5 -2.382e-4,4.781e-5 -2.946e-4,0 -0.00212,-0.001802 -0.00421,-0.003786 -0.00648,-0.005491 -6.15e-5,-4.612e-5 -2.332e-4,4.607e-5 -2.947e-4,0 -0.0046,-0.003446 -0.00939,-0.006822 -0.014732,-0.009825 -7.36e-5,-4.138e-5 -2.207e-4,4.131e-5 -2.946e-4,0 -0.00264,-0.001478 -0.00541,-0.002976 -0.00825,-0.004334 -7.85e-5,-3.735e-5 -2.159e-4,3.724e-5 -2.946e-4,0 -0.00286,-0.001353 -0.00575,-0.00282 -0.00884,-0.004046 -8.31e-5,-3.287e-5 -2.115e-4,3.275e-5 -2.947e-4,0 -0.0031,-0.00122 -0.00638,-0.002385 -0.00972,-0.003467 -8.73e-5,-2.821e-5 -2.07e-4,2.809e-5 -2.946e-4,0 -0.00335,-0.001081 -0.00669,-0.002246 -0.010312,-0.003178 -8.88e-5,-2.275e-5 -2.058e-4,2.263e-5 -2.947e-4,0 -0.00365,-9.3186e-4 -0.00755,-0.001825 -0.011491,-0.002601 -9.07e-5,-1.78e-5 -2.036e-4,1.771e-5 -2.946e-4,0 -0.00808,-0.001582 -0.016767,-0.002594 -0.026223,-0.003467 -0.00473,-4.3806e-4 -0.00914,-8.9336e-4 -0.013553,-0.001154 -0.00442,-2.6094e-4 -0.00884,-3.2501e-4 -0.012964,-2.8893e-4 z"
       id="rect34051-5" />
    <text
       xml:space="preserve"
       style="font-size:3.175px;fill:#eda200;fill-opacity:1;stroke:none;stroke-width:0;stroke-dasharray:none;paint-order:stroke fill markers"
       x="3.6363566"
       y="3.8403757"
       id="text37978"><tspan
         sodipodi:role="line"
         id="tspan37976"
         style="stroke-width:0"
         x="3.6363566"
         y="3.8403757" /></text>
  </g>
</svg>
